<svg version="1.1" id="Layer_1" xmlns="http://www.w3.org/2000/svg" xmlns:xlink="http://www.w3.org/1999/xlink" x="0px" y="0px"
	 width="100%" viewBox="0 0 512 512" enable-background="new 0 0 512 512" xml:space="preserve">
<path fill="#000000" opacity="1.000000" stroke="none" 
	d="
M226.000000,513.000000 
	C151.033340,513.000000 76.066673,513.000000 1.050003,513.000000 
	C1.050003,342.442535 1.050003,171.885056 1.050003,1.000000 
	C82.021141,1.000000 163.042725,1.000000 244.490372,1.380936 
	C244.079742,2.162923 243.281967,2.764316 242.400604,2.935602 
	C222.567474,6.790029 204.897446,14.475635 191.812225,31.117247 
	C189.739136,31.724897 188.091660,32.363689 186.399628,32.846157 
	C163.585663,39.351406 142.372131,49.490707 122.573860,62.344162 
	C112.787483,68.697685 104.075989,76.706863 94.570061,84.104431 
	C92.962250,85.209122 91.545235,86.053169 90.380737,87.162323 
	C77.256897,99.662514 65.386223,113.254013 55.004101,128.122406 
	C43.797436,144.171600 34.923580,161.471573 27.799036,179.664337 
	C19.154406,201.738708 13.676817,224.673309 12.246665,248.278381 
	C11.357753,262.950104 12.517803,277.761322 13.049226,292.499420 
	C13.586088,307.388458 16.923697,321.806946 21.097427,336.412170 
	C21.353020,337.694458 21.705662,338.587341 21.990221,339.501434 
	C27.262716,356.438538 33.902832,372.783478 43.133873,388.385529 
	C60.681095,419.966095 83.950226,445.993225 113.341980,466.992706 
	C120.791458,471.791199 127.792404,476.671356 135.123169,480.991882 
	C160.565857,495.986938 187.945450,505.602905 217.148468,510.100861 
	C220.176010,510.567139 223.053101,512.010193 226.000000,513.000000 
z"/>
<path fill="#000000" opacity="1.000000" stroke="none" 
	d="
M302.000000,0.999998 
	C372.300964,1.000000 442.601929,1.000000 512.951416,1.000000 
	C512.951416,171.555771 512.951416,342.111572 512.951416,513.000000 
	C438.312225,513.000000 363.623962,513.000000 288.400482,512.586670 
	C292.611664,511.268738 297.364746,510.397766 302.103241,509.453583 
	C320.509003,505.785980 338.699646,501.111450 355.555664,492.804565 
	C369.676392,485.845642 383.129974,477.533051 397.209167,469.739471 
	C406.501160,462.471191 415.721039,455.576141 424.330566,447.988525 
	C429.725494,443.233948 434.202545,437.437836 439.383362,431.944214 
	C452.086670,418.615570 462.472076,403.997711 471.364929,387.922516 
	C471.960907,387.182068 472.211670,386.584290 472.509766,386.011108 
	C480.845032,369.984344 488.308594,353.603546 492.910461,335.638245 
	C498.276825,319.245209 500.993103,302.680878 501.776611,285.973724 
	C502.442444,271.775482 501.953705,257.441925 500.795654,243.264633 
	C499.846100,231.639893 497.685760,220.039246 495.131866,208.636261 
	C490.143127,186.361679 481.397186,165.469589 469.926788,145.751831 
	C456.348145,122.409988 440.163483,101.177452 418.976685,83.646660 
	C417.062836,81.890411 415.242340,80.501030 413.521912,78.997223 
	C396.698364,64.291924 377.631470,53.162525 357.425507,43.874016 
	C354.064880,42.329159 350.504303,41.219292 346.905518,39.603539 
	C337.479645,28.525953 325.662415,21.468966 310.790466,17.014368 
	C313.010498,15.335846 313.623810,14.759437 314.334808,14.354624 
	C317.015625,12.828195 320.135742,10.853298 318.653717,7.629594 
	C317.806519,5.786630 314.314728,5.113121 311.956146,4.039295 
	C311.242523,3.714387 310.291992,3.946067 309.526764,3.691690 
	C306.998932,2.851378 304.506195,1.905407 302.000000,0.999998 
z"/>
<path fill="#945230" opacity="1.000000" stroke="none" 
	d="
M226.449982,513.000000 
	C223.053101,512.010193 220.176010,510.567139 217.148468,510.100861 
	C187.945450,505.602905 160.565857,495.986938 135.123169,480.991882 
	C127.792404,476.671356 120.791458,471.791199 113.341377,466.537292 
	C113.044106,453.604706 112.864990,441.298615 113.131554,429.002197 
	C113.242126,423.901276 113.690735,418.650024 115.050362,413.763336 
	C119.180504,398.919067 130.402145,391.011749 144.012802,385.883942 
	C148.593018,384.158325 153.388138,383.003143 159.609131,381.127808 
	C139.322128,369.076416 127.486603,352.941925 127.942429,329.254639 
	C129.478973,310.047150 138.910080,295.908203 154.396515,285.925232 
	C167.923355,277.205505 181.983871,269.313629 196.010223,261.249756 
	C201.205734,267.618500 206.199631,273.793488 211.028259,280.292603 
	C209.949768,282.574188 209.243530,284.663788 208.091568,286.468933 
	C195.196442,306.676025 194.182419,327.919250 201.884277,350.004883 
	C196.222870,350.005981 191.054321,349.853210 185.897858,350.037933 
	C169.564072,350.623108 159.059998,361.688568 160.140640,377.368042 
	C160.281036,379.405090 161.507065,382.258545 163.110672,383.149872 
	C170.207779,387.094727 177.626480,390.461060 185.020599,394.494476 
	C185.137863,415.556854 185.158279,436.161499 185.198181,456.766144 
	C185.201401,458.422852 185.145615,460.115723 185.450485,461.728821 
	C186.292145,466.181885 190.063126,469.176086 194.272659,468.934540 
	C198.574509,468.687683 201.805862,465.433167 202.192749,460.819122 
	C202.345062,459.002625 202.273834,457.166351 202.281586,455.338989 
	C202.356979,437.563934 202.427536,419.788879 202.854294,402.056702 
	C209.225082,403.918274 215.206223,405.865326 221.269333,407.510223 
	C225.250885,408.590393 229.121902,408.385925 232.411499,405.243683 
	C232.908112,404.769318 234.270554,405.201385 235.263763,405.668457 
	C235.300339,438.096649 235.315643,470.070587 235.297165,502.044495 
	C235.295059,505.696381 235.103638,509.348175 235.000000,513.000000 
	C232.299988,513.000000 229.599976,513.000000 226.449982,513.000000 
z"/>
<path fill="#945230" opacity="1.000000" stroke="none" 
	d="
M396.878967,469.819855 
	C383.129974,477.533051 369.676392,485.845642 355.555664,492.804565 
	C338.699646,501.111450 320.509003,505.785980 302.103241,509.453583 
	C297.364746,510.397766 292.611664,511.268738 287.932617,512.586670 
	C285.299988,513.000000 282.599976,513.000000 279.329346,512.544434 
	C278.735535,478.689789 278.721680,445.290771 278.669037,411.891785 
	C278.665375,409.582489 278.373199,407.273621 278.346436,404.606201 
	C278.592590,403.492645 278.707550,402.737518 279.089600,402.200623 
	C283.099121,407.468262 287.856628,408.924438 293.854431,406.839325 
	C299.823242,404.764252 305.881958,402.947632 311.980042,401.479462 
	C312.071533,415.065094 312.085052,428.188965 312.096497,441.312805 
	C312.101868,447.459503 311.983032,453.609283 312.142548,459.751923 
	C312.283569,465.180603 315.893982,468.911133 320.655243,468.940521 
	C325.487213,468.970367 328.929382,465.302948 329.138641,459.828796 
	C329.214722,457.838074 329.154053,455.842224 329.162964,453.848755 
	C329.253632,433.588684 329.345825,413.328613 329.801605,393.067078 
	C336.268341,390.128754 342.728516,387.749969 348.389374,384.123413 
	C356.729797,378.780243 365.391724,373.433502 372.300354,366.481934 
	C382.105469,356.615875 386.437744,343.818939 386.454865,329.805969 
	C392.988495,332.378967 399.144226,334.912781 405.356201,337.300171 
	C416.386322,341.539215 427.606750,345.324066 438.462769,349.965149 
	C453.617188,356.443848 464.314117,367.336456 469.078827,383.495392 
	C469.545441,385.077820 470.378723,386.552155 471.041779,388.076660 
	C462.472076,403.997711 452.086670,418.615570 439.151520,431.655243 
	C434.248718,416.944458 426.522247,404.718872 413.664795,396.103851 
	C410.109161,393.721497 406.477905,391.711975 402.114624,394.041351 
	C397.676849,396.410400 396.935608,400.418671 396.950439,405.041565 
	C397.019745,426.634033 396.918945,448.227051 396.878967,469.819855 
z"/>
<path fill="#57415E" opacity="1.000000" stroke="none" 
	d="
M301.531342,0.999998 
	C304.506195,1.905407 306.998932,2.851378 309.526764,3.691690 
	C310.291992,3.946067 311.242523,3.714387 311.956146,4.039295 
	C314.314728,5.113121 317.806519,5.786630 318.653717,7.629594 
	C320.135742,10.853298 317.015625,12.828195 314.334808,14.354624 
	C313.623810,14.759437 313.010498,15.335846 310.790466,17.014368 
	C325.662415,21.468966 337.479645,28.525953 346.969238,39.940517 
	C355.146362,50.322350 361.574463,61.033482 365.496857,72.972809 
	C366.680237,76.574799 366.832672,81.629547 365.188049,84.865479 
	C354.619324,105.660118 350.913879,127.981483 348.768127,150.920654 
	C345.614990,151.613724 342.862488,152.226425 340.047546,152.465698 
	C338.154907,147.293793 336.090515,142.568512 334.560913,137.676025 
	C333.052155,132.850204 331.579193,127.913437 331.003265,122.920067 
	C330.224274,116.165871 330.793884,109.251060 329.945007,102.510933 
	C327.396393,82.275154 315.599091,71.866196 295.221863,72.412422 
	C287.494415,72.619560 279.658936,74.102859 272.159363,76.087631 
	C263.802368,78.299301 255.637512,79.920120 247.072571,77.584984 
	C247.052612,77.400261 246.976532,77.036537 246.833817,76.716270 
	C240.199524,65.671097 237.148804,54.211761 239.601654,41.692280 
	C242.524246,26.775209 251.544601,15.780085 262.676849,6.140438 
	C264.348328,4.693066 265.570160,2.726418 267.000000,0.999997 
	C278.354218,1.000000 289.708466,1.000000 301.531342,0.999998 
z"/>
<path fill="#46314C" opacity="1.000000" stroke="none" 
	d="
M266.531433,0.999997 
	C265.570160,2.726418 264.348328,4.693066 262.676849,6.140438 
	C251.544601,15.780085 242.524246,26.775209 239.601654,41.692280 
	C237.148804,54.211761 240.199524,65.671097 246.432175,76.731400 
	C237.380814,75.472496 228.642197,73.004723 219.785156,72.459183 
	C199.048828,71.181961 187.479782,80.529282 183.847183,100.875389 
	C182.747162,107.036636 182.421417,113.452080 182.689453,119.710472 
	C182.983917,126.585793 181.847595,132.739120 178.509201,138.821625 
	C176.325012,142.801163 175.401093,147.472412 173.543381,152.042328 
	C170.446884,151.781860 167.719711,151.312912 164.994415,150.423920 
	C162.982483,127.244949 157.606216,105.215660 151.052734,83.387779 
	C149.904831,79.564423 149.819351,74.503876 151.381485,70.956276 
	C156.175415,60.069408 164.247223,51.504032 175.801285,48.166134 
	C185.154999,45.463909 188.739731,38.666115 192.217117,31.075720 
	C204.897446,14.475635 222.567474,6.790029 242.400604,2.935602 
	C243.281967,2.764316 244.079742,2.162923 244.958221,1.380936 
	C252.020950,1.000000 259.041901,1.000000 266.531433,0.999997 
z"/>
<path fill="#FFC839" opacity="1.000000" stroke="none" 
	d="
M278.215210,404.964569 
	C278.373199,407.273621 278.665375,409.582489 278.669037,411.891785 
	C278.721680,445.290771 278.735535,478.689789 278.879364,512.544434 
	C264.645782,513.000000 250.291550,513.000000 235.468658,513.000000 
	C235.103638,509.348175 235.295059,505.696381 235.297165,502.044495 
	C235.315643,470.070587 235.300339,438.096649 235.441360,405.605896 
	C235.587677,405.089081 235.945984,404.967682 236.368439,404.984192 
	C244.526291,405.667633 252.257889,406.791473 259.998260,406.855408 
	C266.064941,406.905487 272.142487,405.643585 278.215210,404.964569 
z"/>
<path fill="#FFB332" opacity="1.000000" stroke="none" 
	d="
M21.162781,336.032684 
	C16.923697,321.806946 13.586088,307.388458 13.049226,292.499420 
	C12.517803,277.761322 11.357753,262.950104 12.246665,248.278381 
	C13.676817,224.673309 19.154406,201.738708 27.799036,179.664337 
	C34.923580,161.471573 43.797436,144.171600 55.004101,128.122406 
	C65.386223,113.254013 77.256897,99.662514 90.380737,87.162323 
	C91.545235,86.053169 92.962250,85.209122 94.866142,84.274132 
	C101.445076,89.846512 107.894371,94.961975 113.305084,101.007034 
	C129.145370,118.704407 135.797104,138.559830 127.677025,162.277954 
	C125.459404,168.755447 125.284950,176.412277 126.075203,183.309937 
	C126.931526,190.784256 129.579971,198.163025 132.218475,205.298126 
	C136.366928,216.516434 141.667068,227.322601 145.539230,238.625427 
	C149.357315,249.770432 145.546173,259.551880 137.656586,267.891113 
	C127.059547,279.092102 113.396782,285.285034 99.488205,290.963318 
	C73.966362,301.382812 49.158470,313.021606 27.880836,331.016541 
	C25.750853,332.817932 23.407240,334.366669 21.162781,336.032684 
z"/>
<path fill="#FF9100" opacity="1.000000" stroke="none" 
	d="
M21.097427,336.412170 
	C23.407240,334.366669 25.750853,332.817932 27.880836,331.016541 
	C49.158470,313.021606 73.966362,301.382812 99.488205,290.963318 
	C113.396782,285.285034 127.059547,279.092102 137.656586,267.891113 
	C145.546173,259.551880 149.357315,249.770432 145.539230,238.625427 
	C141.667068,227.322601 136.366928,216.516434 132.218475,205.298126 
	C129.579971,198.163025 126.931526,190.784256 126.075203,183.309937 
	C125.284950,176.412277 125.459404,168.755447 127.677025,162.277954 
	C135.797104,138.559830 129.145370,118.704407 113.305084,101.007034 
	C107.894371,94.961975 101.445076,89.846512 95.174225,84.136620 
	C104.075989,76.706863 112.787483,68.697685 122.573860,62.344162 
	C142.372131,49.490707 163.585663,39.351406 186.399628,32.846157 
	C188.091660,32.363689 189.739136,31.724897 191.812225,31.117247 
	C188.739731,38.666115 185.154999,45.463909 175.801285,48.166134 
	C164.247223,51.504032 156.175415,60.069408 151.381485,70.956276 
	C149.819351,74.503876 149.904831,79.564423 151.052734,83.387779 
	C157.606216,105.215660 162.982483,127.244949 164.605713,150.480835 
	C156.720001,152.081787 152.654800,156.230728 153.120316,163.611969 
	C153.406616,168.151581 154.993851,172.646393 156.292023,177.074814 
	C157.688965,181.840225 159.882080,186.406479 160.930817,191.232803 
	C163.322845,202.240921 166.763824,205.589020 177.777405,206.856079 
	C178.821854,226.870621 185.556870,244.552902 195.808594,261.056000 
	C181.983871,269.313629 167.923355,277.205505 154.396515,285.925232 
	C138.910080,295.908203 129.478973,310.047150 127.590714,329.368774 
	C123.252968,331.588226 119.354431,333.449951 115.322426,334.953827 
	C103.522079,339.355225 91.582077,343.393036 79.856277,347.980927 
	C62.619240,354.725220 49.756927,365.905701 44.564552,384.428711 
	C44.210766,385.690765 43.522530,386.859070 42.989845,388.070953 
	C33.902832,372.783478 27.262716,356.438538 21.990221,339.501434 
	C21.705662,338.587341 21.353020,337.694458 21.097427,336.412170 
z"/>
<path fill="#753616" opacity="1.000000" stroke="none" 
	d="
M43.133869,388.385529 
	C43.522530,386.859070 44.210766,385.690765 44.564552,384.428711 
	C49.756927,365.905701 62.619240,354.725220 79.856277,347.980927 
	C91.582077,343.393036 103.522079,339.355225 115.322426,334.953827 
	C119.354431,333.449951 123.252968,331.588226 127.564201,329.775879 
	C127.486603,352.941925 139.322128,369.076416 159.609131,381.127808 
	C153.388138,383.003143 148.593018,384.158325 144.012802,385.883942 
	C130.402145,391.011749 119.180504,398.919067 115.050362,413.763336 
	C113.690735,418.650024 113.242126,423.901276 113.131554,429.002197 
	C112.864990,441.298615 113.044106,453.604706 113.044083,466.362305 
	C83.950226,445.993225 60.681095,419.966095 43.133869,388.385529 
z"/>
<path fill="#FFB332" opacity="1.000000" stroke="none" 
	d="
M419.116516,83.960434 
	C440.163483,101.177452 456.348145,122.409988 469.926788,145.751831 
	C481.397186,165.469589 490.143127,186.361679 495.131866,208.636261 
	C497.685760,220.039246 499.846100,231.639893 500.795654,243.264633 
	C501.953705,257.441925 502.442444,271.775482 501.776611,285.973724 
	C500.993103,302.680878 498.276825,319.245209 492.585571,335.555481 
	C488.058716,332.530182 484.000580,329.104858 479.789246,325.879517 
	C459.220306,310.126312 435.856049,299.623657 412.094208,289.840057 
	C398.804779,284.368347 385.889130,278.164642 375.885223,267.393036 
	C368.496155,259.436890 364.842346,250.059143 368.259979,239.422943 
	C371.352844,229.797409 375.272583,220.390060 379.460419,211.174011 
	C387.531433,193.412430 392.006409,175.685928 385.004150,156.207504 
	C380.281311,143.069901 382.610535,129.968277 389.114990,117.591293 
	C396.331207,103.859985 407.064606,93.339828 419.116516,83.960434 
z"/>
<path fill="#FF9100" opacity="1.000000" stroke="none" 
	d="
M418.976685,83.646660 
	C407.064606,93.339828 396.331207,103.859985 389.114990,117.591293 
	C382.610535,129.968277 380.281311,143.069901 385.004150,156.207504 
	C392.006409,175.685928 387.531433,193.412430 379.460419,211.174011 
	C375.272583,220.390060 371.352844,229.797409 368.259979,239.422943 
	C364.842346,250.059143 368.496155,259.436890 375.885223,267.393036 
	C385.889130,278.164642 398.804779,284.368347 412.094208,289.840057 
	C435.856049,299.623657 459.220306,310.126312 479.789246,325.879517 
	C484.000580,329.104858 488.058716,332.530182 492.512329,335.946045 
	C488.308594,353.603546 480.845032,369.984344 472.509766,386.011108 
	C472.211670,386.584290 471.960907,387.182068 471.364929,387.922516 
	C470.378723,386.552155 469.545441,385.077820 469.078827,383.495392 
	C464.314117,367.336456 453.617188,356.443848 438.462769,349.965149 
	C427.606750,345.324066 416.386322,341.539215 405.356201,337.300171 
	C399.144226,334.912781 392.988495,332.378967 386.429260,329.402039 
	C384.766541,313.181763 378.877472,299.380341 365.823334,290.385437 
	C350.385223,279.747833 333.940796,270.570709 318.016144,260.436768 
	C328.761047,243.679092 334.390472,225.568497 336.506012,206.149109 
	C345.143127,206.207001 349.935791,202.134964 351.979614,193.962173 
	C353.340485,188.520432 355.257080,183.218628 356.891846,177.844116 
	C358.094055,173.891708 359.663696,169.992050 360.326721,165.947098 
	C361.668396,157.761871 357.378082,152.238953 349.168793,150.840286 
	C350.913879,127.981483 354.619324,105.660118 365.188049,84.865479 
	C366.832672,81.629547 366.680237,76.574799 365.496857,72.972809 
	C361.574463,61.033482 355.146362,50.322350 347.099854,40.245396 
	C350.504303,41.219292 354.064880,42.329159 357.425507,43.874016 
	C377.631470,53.162525 396.698364,64.291924 413.521912,78.997223 
	C415.242340,80.501030 417.062836,81.890411 418.976685,83.646660 
z"/>
<path fill="#753616" opacity="1.000000" stroke="none" 
	d="
M397.209167,469.739471 
	C396.918945,448.227051 397.019745,426.634033 396.950439,405.041565 
	C396.935608,400.418671 397.676849,396.410400 402.114624,394.041351 
	C406.477905,391.711975 410.109161,393.721497 413.664795,396.103851 
	C426.522247,404.718872 434.248718,416.944458 438.859558,431.820068 
	C434.202545,437.437836 429.725494,443.233948 424.330566,447.988525 
	C415.721039,455.576141 406.501160,462.471191 397.209167,469.739471 
z"/>
<path fill="#FFD9A1" opacity="1.000000" stroke="none" 
	d="
M196.010223,261.249756 
	C185.556870,244.552902 178.821854,226.870621 177.761917,206.412506 
	C176.480682,194.873413 174.909363,184.226501 174.055405,173.522339 
	C173.481995,166.334793 173.924652,159.066177 173.912689,151.833832 
	C175.401093,147.472412 176.325012,142.801163 178.509201,138.821625 
	C181.847595,132.739120 182.983917,126.585793 182.689453,119.710472 
	C182.421417,113.452080 182.747162,107.036636 183.847183,100.875389 
	C187.479782,80.529282 199.048828,71.181961 219.785156,72.459183 
	C228.642197,73.004723 237.380814,75.472496 246.574890,77.051666 
	C246.976532,77.036537 247.052612,77.400261 246.854889,77.855515 
	C234.419434,88.936020 233.189255,103.517990 233.568771,118.035385 
	C233.763885,125.499580 233.076721,132.193054 229.553604,138.639923 
	C225.986450,145.167404 223.328339,152.034531 224.036987,159.568512 
	C225.900787,179.383026 227.052826,199.336258 230.309937,218.931473 
	C235.466904,249.956528 251.917877,274.231567 278.124664,291.836700 
	C281.134674,293.858734 283.644989,293.791229 286.294189,291.779694 
	C291.845428,287.564728 297.330353,283.262451 302.946045,279.345459 
	C304.346741,282.391266 305.406128,285.235657 306.977753,287.761261 
	C323.561859,314.412079 317.884674,346.171448 300.092438,369.171997 
	C299.551788,369.535034 299.281555,369.798798 299.023865,370.033020 
	C299.036407,370.003418 299.084747,370.045746 298.731812,370.099182 
	C271.972443,384.714813 245.294510,385.557526 218.298386,371.791992 
	C217.311218,371.288666 216.090759,371.242828 214.999756,370.983246 
	C215.020462,370.982727 215.013397,371.023560 215.071320,370.731384 
	C215.101730,370.242554 215.074234,370.045898 215.238647,369.578796 
	C216.830658,368.434631 218.173691,367.448242 219.640015,366.705170 
	C229.998810,361.455780 237.928589,353.674469 244.133987,343.914185 
	C252.030380,331.494202 255.030945,317.615936 256.486420,303.296509 
	C256.588318,302.293915 254.401581,300.272308 253.048203,300.033630 
	C243.003891,298.262238 233.063553,296.255646 224.545288,290.209656 
	C219.974426,286.965424 215.636551,283.392883 211.193527,279.968506 
	C206.199631,273.793488 201.205734,267.618500 196.010223,261.249756 
z"/>
<path fill="#F9C98A" opacity="1.000000" stroke="none" 
	d="
M211.028259,280.292603 
	C215.636551,283.392883 219.974426,286.965424 224.545288,290.209656 
	C233.063553,296.255646 243.003891,298.262238 253.048203,300.033630 
	C254.401581,300.272308 256.588318,302.293915 256.486420,303.296509 
	C255.030945,317.615936 252.030380,331.494202 244.133987,343.914185 
	C237.928589,353.674469 229.998810,361.455780 219.640015,366.705170 
	C218.173691,367.448242 216.830658,368.434631 214.920502,369.606201 
	C214.197693,369.908905 213.984955,369.913788 213.548584,369.686707 
	C209.677536,362.971680 206.030106,356.488556 202.382675,350.005432 
	C194.182419,327.919250 195.196442,306.676025 208.091568,286.468933 
	C209.243530,284.663788 209.949768,282.574188 211.028259,280.292603 
z"/>
<path fill="#B36B48" opacity="1.000000" stroke="none" 
	d="
M201.884277,350.004883 
	C206.030106,356.488556 209.677536,362.971680 213.697952,369.936829 
	C214.385086,370.620422 214.699249,370.821991 215.013397,371.023560 
	C215.013397,371.023560 215.020462,370.982727 215.043625,371.327209 
	C219.249817,376.580017 222.979584,381.992249 227.732269,386.267273 
	C233.489578,391.445984 236.438400,397.310974 235.945984,404.967682 
	C235.945984,404.967682 235.587677,405.089081 235.410095,405.151611 
	C234.270554,405.201385 232.908112,404.769318 232.411499,405.243683 
	C229.121902,408.385925 225.250885,408.590393 221.269333,407.510223 
	C215.206223,405.865326 209.225082,403.918274 202.762909,401.598785 
	C202.254395,397.139252 202.439377,393.156769 202.063370,389.228027 
	C201.649780,384.906708 198.901962,382.389709 194.595886,381.987701 
	C190.283310,381.585175 187.209076,383.613922 185.872787,387.719391 
	C185.222885,389.716064 185.222946,391.924316 184.928772,394.036774 
	C177.626480,390.461060 170.207779,387.094727 163.110672,383.149872 
	C161.507065,382.258545 160.281036,379.405090 160.140640,377.368042 
	C159.059998,361.688568 169.564072,350.623108 185.897858,350.037933 
	C191.054321,349.853210 196.222870,350.005981 201.884277,350.004883 
z"/>
<path fill="#DDEBFB" opacity="1.000000" stroke="none" 
	d="
M185.020615,394.494476 
	C185.222946,391.924316 185.222885,389.716064 185.872787,387.719391 
	C187.209076,383.613922 190.283310,381.585175 194.595886,381.987701 
	C198.901962,382.389709 201.649780,384.906708 202.063370,389.228027 
	C202.439377,393.156769 202.254395,397.139252 202.408081,401.555908 
	C202.427536,419.788879 202.356979,437.563934 202.281586,455.338989 
	C202.273834,457.166351 202.345062,459.002625 202.192749,460.819122 
	C201.805862,465.433167 198.574509,468.687683 194.272659,468.934540 
	C190.063126,469.176086 186.292145,466.181885 185.450485,461.728821 
	C185.145615,460.115723 185.201401,458.422852 185.198181,456.766144 
	C185.158279,436.161499 185.137863,415.556854 185.020615,394.494476 
z"/>
<path fill="#B36947" opacity="1.000000" stroke="none" 
	d="
M300.362885,369.072784 
	C317.884674,346.171448 323.561859,314.412079 306.977753,287.761261 
	C305.406128,285.235657 304.346741,282.391266 303.115814,279.050476 
	C308.098907,272.524261 313.015747,266.642395 317.932587,260.760498 
	C333.940796,270.570709 350.385223,279.747833 365.823334,290.385437 
	C378.877472,299.380341 384.766541,313.181763 386.076691,329.296936 
	C386.437744,343.818939 382.105469,356.615875 372.300354,366.481934 
	C365.391724,373.433502 356.729797,378.780243 348.389374,384.123413 
	C342.728516,387.749969 336.268341,390.128754 329.694092,392.655334 
	C328.789520,385.218597 325.924103,381.814819 320.524536,381.913086 
	C315.205048,382.009827 312.187958,385.843964 312.093170,392.589783 
	C312.053680,395.399445 311.966644,398.208405 311.901245,401.017700 
	C305.881958,402.947632 299.823242,404.764252 293.854431,406.839325 
	C287.856628,408.924438 283.099121,407.468262 278.925720,401.867584 
	C277.044830,396.340607 279.698456,393.003143 282.763062,389.536224 
	C288.373413,383.189484 293.661987,376.558319 299.084747,370.045746 
	C299.084747,370.045746 299.036407,370.003418 299.317078,369.988495 
	C299.852783,369.673309 300.107849,369.373047 300.362885,369.072784 
z"/>
<path fill="#FFDC41" opacity="1.000000" stroke="none" 
	d="
M298.731812,370.099182 
	C293.661987,376.558319 288.373413,383.189484 282.763062,389.536224 
	C279.698456,393.003143 277.044830,396.340607 278.658630,401.649292 
	C278.707550,402.737518 278.592590,403.492645 278.346436,404.606201 
	C272.142487,405.643585 266.064941,406.905487 259.998260,406.855408 
	C252.257889,406.791473 244.526291,405.667633 236.368439,404.984192 
	C236.438400,397.310974 233.489578,391.445984 227.732269,386.267273 
	C222.979584,381.992249 219.249817,376.580017 215.022919,371.327728 
	C216.090759,371.242828 217.311218,371.288666 218.298386,371.791992 
	C245.294510,385.557526 271.972443,384.714813 298.731812,370.099182 
z"/>
<path fill="#DDECFC" opacity="1.000000" stroke="none" 
	d="
M311.980042,401.479492 
	C311.966644,398.208405 312.053680,395.399445 312.093170,392.589783 
	C312.187958,385.843964 315.205048,382.009827 320.524536,381.913086 
	C325.924103,381.814819 328.789520,385.218597 329.330017,392.656799 
	C329.345825,413.328613 329.253632,433.588684 329.162964,453.848755 
	C329.154053,455.842224 329.214722,457.838074 329.138641,459.828796 
	C328.929382,465.302948 325.487213,468.970367 320.655243,468.940521 
	C315.893982,468.911133 312.283569,465.180603 312.142548,459.751923 
	C311.983032,453.609283 312.101868,447.459503 312.096497,441.312805 
	C312.085052,428.188965 312.071533,415.065094 311.980042,401.479492 
z"/>
<path fill="#FCE6CA" opacity="1.000000" stroke="none" 
	d="
M318.016144,260.436768 
	C313.015747,266.642395 308.098907,272.524261 303.012268,278.701080 
	C297.330353,283.262451 291.845428,287.564728 286.294189,291.779694 
	C283.644989,293.791229 281.134674,293.858734 278.124664,291.836700 
	C251.917877,274.231567 235.466904,249.956528 230.309937,218.931473 
	C227.052826,199.336258 225.900787,179.383026 224.036987,159.568512 
	C223.328339,152.034531 225.986450,145.167404 229.553604,138.639923 
	C233.076721,132.193054 233.763885,125.499580 233.568771,118.035385 
	C233.189255,103.517990 234.419434,88.936020 246.874847,78.040237 
	C255.637512,79.920120 263.802368,78.299301 272.159363,76.087631 
	C279.658936,74.102859 287.494415,72.619560 295.221863,72.412422 
	C315.599091,71.866196 327.396393,82.275154 329.945007,102.510933 
	C330.793884,109.251060 330.224274,116.165871 331.003265,122.920067 
	C331.579193,127.913437 333.052155,132.850204 334.560913,137.676025 
	C336.090515,142.568512 338.154907,147.293793 340.050140,152.891235 
	C339.915497,160.451767 340.009064,167.237793 339.448944,173.969421 
	C338.554932,184.713837 337.226288,195.422089 336.081421,206.145630 
	C334.390472,225.568497 328.761047,243.679092 318.016144,260.436768 
z"/>
<path fill="#FFD89F" opacity="1.000000" stroke="none" 
	d="
M336.506012,206.149109 
	C337.226288,195.422089 338.554932,184.713837 339.448944,173.969421 
	C340.009064,167.237793 339.915497,160.451767 340.112610,153.264633 
	C342.862488,152.226425 345.614990,151.613724 348.768127,150.920654 
	C357.378082,152.238953 361.668396,157.761871 360.326721,165.947098 
	C359.663696,169.992050 358.094055,173.891708 356.891846,177.844116 
	C355.257080,183.218628 353.340485,188.520432 351.979614,193.962173 
	C349.935791,202.134964 345.143127,206.207001 336.506012,206.149109 
z"/>
<path fill="#F9C889" opacity="1.000000" stroke="none" 
	d="
M173.543381,152.042328 
	C173.924652,159.066177 173.481995,166.334793 174.055405,173.522339 
	C174.909363,184.226501 176.480682,194.873413 177.762268,205.988251 
	C166.763824,205.589020 163.322845,202.240921 160.930817,191.232803 
	C159.882080,186.406479 157.688965,181.840225 156.292023,177.074814 
	C154.993851,172.646393 153.406616,168.151581 153.120316,163.611969 
	C152.654800,156.230728 156.720001,152.081787 164.603821,150.900879 
	C167.719711,151.312912 170.446884,151.781860 173.543381,152.042328 
z"/>
<path fill="#FFDC41" opacity="1.000000" stroke="none" 
	d="
M300.092438,369.171997 
	C300.107849,369.373047 299.852783,369.673309 299.304565,370.018066 
	C299.281555,369.798798 299.551788,369.535034 300.092438,369.171997 
z"/>
<path fill="#FFDC41" opacity="1.000000" stroke="none" 
	d="
M215.071320,370.731384 
	C214.699249,370.821991 214.385086,370.620422 213.921570,370.168762 
	C213.984955,369.913788 214.197693,369.908905 214.728592,369.876617 
	C215.074234,370.045898 215.101730,370.242554 215.071320,370.731384 
z"/>
</svg>